<?xml version="1.0" encoding="utf-8"?>
<!-- Generator: Adobe Illustrator 16.0.0, SVG Export Plug-In . SVG Version: 6.00 Build 0)  -->
<!DOCTYPE svg PUBLIC "-//W3C//DTD SVG 1.1//EN" "http://www.w3.org/Graphics/SVG/1.1/DTD/svg11.dtd">
<svg version="1.1" id="Layer_1" xmlns="http://www.w3.org/2000/svg" xmlns:xlink="http://www.w3.org/1999/xlink" x="0px" y="0px"
	 width="409.89px" height="409.89px" viewBox="0 0 409.89 409.89" enable-background="new 0 0 409.89 409.89" xml:space="preserve">
<g id="QRcode">
	<rect fill="#FFFFFF" fill-opacity="0" width="409.89" height="409.89"/>
	<g id="Pattern">
		<rect x="39.989" y="39.989" width="9.997" height="9.997"/>
		<rect x="49.986" y="39.989" width="9.998" height="9.997"/>
		<rect x="59.984" y="39.989" width="9.997" height="9.997"/>
		<rect x="69.981" y="39.989" width="9.998" height="9.997"/>
		<rect x="79.979" y="39.989" width="9.997" height="9.997"/>
		<rect x="89.976" y="39.989" width="9.998" height="9.997"/>
		<rect x="99.973" y="39.989" width="9.997" height="9.997"/>
		<rect x="129.965" y="39.989" width="9.998" height="9.997"/>
		<rect x="139.962" y="39.989" width="9.997" height="9.997"/>
		<rect x="149.959" y="39.989" width="9.998" height="9.997"/>
		<rect x="179.952" y="39.989" width="9.997" height="9.997"/>
		<rect x="209.943" y="39.989" width="9.998" height="9.997"/>
		<rect x="229.938" y="39.989" width="9.997" height="9.997"/>
		<rect x="249.933" y="39.989" width="9.997" height="9.997"/>
		<rect x="259.93" y="39.989" width="9.997" height="9.997"/>
		<rect x="279.925" y="39.989" width="9.996" height="9.997"/>
		<rect x="299.919" y="39.989" width="9.998" height="9.997"/>
		<rect x="309.917" y="39.989" width="9.996" height="9.997"/>
		<rect x="319.914" y="39.989" width="9.998" height="9.997"/>
		<rect x="329.912" y="39.989" width="9.996" height="9.997"/>
		<rect x="339.908" y="39.989" width="9.998" height="9.997"/>
		<rect x="349.906" y="39.989" width="9.998" height="9.997"/>
		<rect x="359.904" y="39.989" width="9.996" height="9.997"/>
		<rect x="39.989" y="49.986" width="9.997" height="9.998"/>
		<rect x="99.973" y="49.986" width="9.997" height="9.998"/>
		<rect x="119.968" y="49.986" width="9.997" height="9.998"/>
		<rect x="139.962" y="49.986" width="9.997" height="9.998"/>
		<rect x="169.954" y="49.986" width="9.998" height="9.998"/>
		<rect x="219.941" y="49.986" width="9.997" height="9.998"/>
		<rect x="239.935" y="49.986" width="9.998" height="9.998"/>
		<rect x="259.93" y="49.986" width="9.997" height="9.998"/>
		<rect x="279.925" y="49.986" width="9.996" height="9.998"/>
		<rect x="299.919" y="49.986" width="9.998" height="9.998"/>
		<rect x="359.904" y="49.986" width="9.996" height="9.998"/>
		<rect x="39.989" y="59.984" width="9.997" height="9.998"/>
		<rect x="59.984" y="59.984" width="9.997" height="9.998"/>
		<rect x="69.981" y="59.984" width="9.998" height="9.998"/>
		<rect x="79.979" y="59.984" width="9.997" height="9.998"/>
		<rect x="99.973" y="59.984" width="9.997" height="9.998"/>
		<rect x="119.968" y="59.984" width="9.997" height="9.998"/>
		<rect x="149.959" y="59.984" width="9.998" height="9.998"/>
		<rect x="189.949" y="59.984" width="9.998" height="9.998"/>
		<rect x="209.943" y="59.984" width="9.998" height="9.998"/>
		<rect x="229.938" y="59.984" width="9.997" height="9.998"/>
		<rect x="239.935" y="59.984" width="9.998" height="9.998"/>
		<rect x="249.933" y="59.984" width="9.997" height="9.998"/>
		<rect x="299.919" y="59.984" width="9.998" height="9.998"/>
		<rect x="319.914" y="59.984" width="9.998" height="9.998"/>
		<rect x="329.912" y="59.984" width="9.996" height="9.998"/>
		<rect x="339.908" y="59.984" width="9.998" height="9.998"/>
		<rect x="359.904" y="59.984" width="9.996" height="9.998"/>
		<rect x="39.989" y="69.981" width="9.997" height="9.997"/>
		<rect x="59.984" y="69.981" width="9.997" height="9.997"/>
		<rect x="69.981" y="69.981" width="9.998" height="9.997"/>
		<rect x="79.979" y="69.981" width="9.997" height="9.997"/>
		<rect x="99.973" y="69.981" width="9.997" height="9.997"/>
		<rect x="119.968" y="69.981" width="9.997" height="9.997"/>
		<rect x="129.965" y="69.981" width="9.998" height="9.997"/>
		<rect x="139.962" y="69.981" width="9.997" height="9.997"/>
		<rect x="159.957" y="69.981" width="9.997" height="9.997"/>
		<rect x="169.954" y="69.981" width="9.998" height="9.997"/>
		<rect x="199.946" y="69.981" width="9.997" height="9.997"/>
		<rect x="209.943" y="69.981" width="9.998" height="9.997"/>
		<rect x="219.941" y="69.981" width="9.997" height="9.997"/>
		<rect x="249.933" y="69.981" width="9.997" height="9.997"/>
		<rect x="259.93" y="69.981" width="9.997" height="9.997"/>
		<rect x="269.927" y="69.981" width="9.998" height="9.997"/>
		<rect x="279.925" y="69.981" width="9.996" height="9.997"/>
		<rect x="299.919" y="69.981" width="9.998" height="9.997"/>
		<rect x="319.914" y="69.981" width="9.998" height="9.997"/>
		<rect x="329.912" y="69.981" width="9.996" height="9.997"/>
		<rect x="339.908" y="69.981" width="9.998" height="9.997"/>
		<rect x="359.904" y="69.981" width="9.996" height="9.997"/>
		<rect x="39.989" y="79.979" width="9.997" height="9.997"/>
		<rect x="59.984" y="79.979" width="9.997" height="9.997"/>
		<rect x="69.981" y="79.979" width="9.998" height="9.997"/>
		<rect x="79.979" y="79.979" width="9.997" height="9.997"/>
		<rect x="99.973" y="79.979" width="9.997" height="9.997"/>
		<rect x="119.968" y="79.979" width="9.997" height="9.997"/>
		<rect x="129.965" y="79.979" width="9.998" height="9.997"/>
		<rect x="149.959" y="79.979" width="9.998" height="9.997"/>
		<rect x="169.954" y="79.979" width="9.998" height="9.997"/>
		<rect x="179.952" y="79.979" width="9.997" height="9.997"/>
		<rect x="189.949" y="79.979" width="9.998" height="9.997"/>
		<rect x="219.941" y="79.979" width="9.997" height="9.997"/>
		<rect x="239.935" y="79.979" width="9.998" height="9.997"/>
		<rect x="259.93" y="79.979" width="9.997" height="9.997"/>
		<rect x="269.927" y="79.979" width="9.998" height="9.997"/>
		<rect x="279.925" y="79.979" width="9.996" height="9.997"/>
		<rect x="299.919" y="79.979" width="9.998" height="9.997"/>
		<rect x="319.914" y="79.979" width="9.998" height="9.997"/>
		<rect x="329.912" y="79.979" width="9.996" height="9.997"/>
		<rect x="339.908" y="79.979" width="9.998" height="9.997"/>
		<rect x="359.904" y="79.979" width="9.996" height="9.997"/>
		<rect x="39.989" y="89.976" width="9.997" height="9.998"/>
		<rect x="99.973" y="89.976" width="9.997" height="9.998"/>
		<rect x="119.968" y="89.976" width="9.997" height="9.998"/>
		<rect x="139.962" y="89.976" width="9.997" height="9.998"/>
		<rect x="159.957" y="89.976" width="9.997" height="9.998"/>
		<rect x="169.954" y="89.976" width="9.998" height="9.998"/>
		<rect x="189.949" y="89.976" width="9.998" height="9.998"/>
		<rect x="199.946" y="89.976" width="9.997" height="9.998"/>
		<rect x="209.943" y="89.976" width="9.998" height="9.998"/>
		<rect x="229.938" y="89.976" width="9.997" height="9.998"/>
		<rect x="249.933" y="89.976" width="9.997" height="9.998"/>
		<rect x="259.93" y="89.976" width="9.997" height="9.998"/>
		<rect x="279.925" y="89.976" width="9.996" height="9.998"/>
		<rect x="299.919" y="89.976" width="9.998" height="9.998"/>
		<rect x="359.904" y="89.976" width="9.996" height="9.998"/>
		<rect x="39.989" y="99.973" width="9.997" height="9.997"/>
		<rect x="49.986" y="99.973" width="9.998" height="9.997"/>
		<rect x="59.984" y="99.973" width="9.997" height="9.997"/>
		<rect x="69.981" y="99.973" width="9.998" height="9.997"/>
		<rect x="79.979" y="99.973" width="9.997" height="9.997"/>
		<rect x="89.976" y="99.973" width="9.998" height="9.997"/>
		<rect x="99.973" y="99.973" width="9.997" height="9.997"/>
		<rect x="119.968" y="99.973" width="9.997" height="9.997"/>
		<rect x="139.962" y="99.973" width="9.997" height="9.997"/>
		<rect x="159.957" y="99.973" width="9.997" height="9.997"/>
		<rect x="179.952" y="99.973" width="9.997" height="9.997"/>
		<rect x="199.946" y="99.973" width="9.997" height="9.997"/>
		<rect x="219.941" y="99.973" width="9.997" height="9.997"/>
		<rect x="239.935" y="99.973" width="9.998" height="9.997"/>
		<rect x="259.93" y="99.973" width="9.997" height="9.997"/>
		<rect x="279.925" y="99.973" width="9.996" height="9.997"/>
		<rect x="299.919" y="99.973" width="9.998" height="9.997"/>
		<rect x="309.917" y="99.973" width="9.996" height="9.997"/>
		<rect x="319.914" y="99.973" width="9.998" height="9.997"/>
		<rect x="329.912" y="99.973" width="9.996" height="9.997"/>
		<rect x="339.908" y="99.973" width="9.998" height="9.997"/>
		<rect x="349.906" y="99.973" width="9.998" height="9.997"/>
		<rect x="359.904" y="99.973" width="9.996" height="9.997"/>
		<rect x="129.965" y="109.97" width="9.998" height="9.998"/>
		<rect x="149.959" y="109.97" width="9.998" height="9.998"/>
		<rect x="159.957" y="109.97" width="9.997" height="9.998"/>
		<rect x="169.954" y="109.97" width="9.998" height="9.998"/>
		<rect x="209.943" y="109.97" width="9.998" height="9.998"/>
		<rect x="229.938" y="109.97" width="9.997" height="9.998"/>
		<rect x="239.935" y="109.97" width="9.998" height="9.998"/>
		<rect x="59.984" y="119.968" width="9.997" height="9.997"/>
		<rect x="89.976" y="119.968" width="9.998" height="9.997"/>
		<rect x="99.973" y="119.968" width="9.997" height="9.997"/>
		<rect x="109.97" y="119.968" width="9.998" height="9.997"/>
		<rect x="119.968" y="119.968" width="9.997" height="9.997"/>
		<rect x="129.965" y="119.968" width="9.998" height="9.997"/>
		<rect x="139.962" y="119.968" width="9.997" height="9.997"/>
		<rect x="159.957" y="119.968" width="9.997" height="9.997"/>
		<rect x="169.954" y="119.968" width="9.998" height="9.997"/>
		<rect x="179.952" y="119.968" width="9.997" height="9.997"/>
		<rect x="209.943" y="119.968" width="9.998" height="9.997"/>
		<rect x="229.938" y="119.968" width="9.997" height="9.997"/>
		<rect x="269.927" y="119.968" width="9.998" height="9.997"/>
		<rect x="279.925" y="119.968" width="9.996" height="9.997"/>
		<rect x="289.921" y="119.968" width="9.998" height="9.997"/>
		<rect x="309.917" y="119.968" width="9.996" height="9.997"/>
		<rect x="319.914" y="119.968" width="9.998" height="9.997"/>
		<rect x="329.912" y="119.968" width="9.996" height="9.997"/>
		<rect x="339.908" y="119.968" width="9.998" height="9.997"/>
		<rect x="349.906" y="119.968" width="9.998" height="9.997"/>
		<rect x="39.989" y="129.965" width="9.997" height="9.998"/>
		<rect x="49.986" y="129.965" width="9.998" height="9.998"/>
		<rect x="69.981" y="129.965" width="9.998" height="9.998"/>
		<rect x="109.97" y="129.965" width="9.998" height="9.998"/>
		<rect x="119.968" y="129.965" width="9.997" height="9.998"/>
		<rect x="149.959" y="129.965" width="9.998" height="9.998"/>
		<rect x="159.957" y="129.965" width="9.997" height="9.998"/>
		<rect x="169.954" y="129.965" width="9.998" height="9.998"/>
		<rect x="179.952" y="129.965" width="9.997" height="9.998"/>
		<rect x="199.946" y="129.965" width="9.997" height="9.998"/>
		<rect x="239.935" y="129.965" width="9.998" height="9.998"/>
		<rect x="249.933" y="129.965" width="9.997" height="9.998"/>
		<rect x="269.927" y="129.965" width="9.998" height="9.998"/>
		<rect x="289.921" y="129.965" width="9.998" height="9.998"/>
		<rect x="299.919" y="129.965" width="9.998" height="9.998"/>
		<rect x="309.917" y="129.965" width="9.996" height="9.998"/>
		<rect x="339.908" y="129.965" width="9.998" height="9.998"/>
		<rect x="359.904" y="129.965" width="9.996" height="9.998"/>
		<rect x="39.989" y="139.962" width="9.997" height="9.997"/>
		<rect x="49.986" y="139.962" width="9.998" height="9.997"/>
		<rect x="69.981" y="139.962" width="9.998" height="9.997"/>
		<rect x="79.979" y="139.962" width="9.997" height="9.997"/>
		<rect x="99.973" y="139.962" width="9.997" height="9.997"/>
		<rect x="129.965" y="139.962" width="9.998" height="9.997"/>
		<rect x="149.959" y="139.962" width="9.998" height="9.997"/>
		<rect x="169.954" y="139.962" width="9.998" height="9.997"/>
		<rect x="189.949" y="139.962" width="9.998" height="9.997"/>
		<rect x="209.943" y="139.962" width="9.998" height="9.997"/>
		<rect x="229.938" y="139.962" width="9.997" height="9.997"/>
		<rect x="239.935" y="139.962" width="9.998" height="9.997"/>
		<rect x="269.927" y="139.962" width="9.998" height="9.997"/>
		<rect x="289.921" y="139.962" width="9.998" height="9.997"/>
		<rect x="299.919" y="139.962" width="9.998" height="9.997"/>
		<rect x="309.917" y="139.962" width="9.996" height="9.997"/>
		<rect x="319.914" y="139.962" width="9.998" height="9.997"/>
		<rect x="329.912" y="139.962" width="9.996" height="9.997"/>
		<rect x="339.908" y="139.962" width="9.998" height="9.997"/>
		<rect x="359.904" y="139.962" width="9.996" height="9.997"/>
		<rect x="69.981" y="149.959" width="9.998" height="9.998"/>
		<rect x="79.979" y="149.959" width="9.997" height="9.998"/>
		<rect x="109.97" y="149.959" width="9.998" height="9.998"/>
		<rect x="129.965" y="149.959" width="9.998" height="9.998"/>
		<rect x="139.962" y="149.959" width="9.997" height="9.998"/>
		<rect x="159.957" y="149.959" width="9.997" height="9.998"/>
		<rect x="199.946" y="149.959" width="9.997" height="9.998"/>
		<rect x="229.938" y="149.959" width="9.997" height="9.998"/>
		<rect x="239.935" y="149.959" width="9.998" height="9.998"/>
		<rect x="249.933" y="149.959" width="9.997" height="9.998"/>
		<rect x="269.927" y="149.959" width="9.998" height="9.998"/>
		<rect x="289.921" y="149.959" width="9.998" height="9.998"/>
		<rect x="299.919" y="149.959" width="9.998" height="9.998"/>
		<rect x="309.917" y="149.959" width="9.996" height="9.998"/>
		<rect x="329.912" y="149.959" width="9.996" height="9.998"/>
		<rect x="349.906" y="149.959" width="9.998" height="9.998"/>
		<rect x="359.904" y="149.959" width="9.996" height="9.998"/>
		<rect x="39.989" y="159.957" width="9.997" height="9.997"/>
		<rect x="69.981" y="159.957" width="9.998" height="9.997"/>
		<rect x="79.979" y="159.957" width="9.997" height="9.997"/>
		<rect x="99.973" y="159.957" width="9.997" height="9.997"/>
		<rect x="109.97" y="159.957" width="9.998" height="9.997"/>
		<rect x="139.962" y="159.957" width="9.997" height="9.997"/>
		<rect x="159.957" y="159.957" width="9.997" height="9.997"/>
		<rect x="179.952" y="159.957" width="9.997" height="9.997"/>
		<rect x="209.943" y="159.957" width="9.998" height="9.997"/>
		<rect x="219.941" y="159.957" width="9.997" height="9.997"/>
		<rect x="229.938" y="159.957" width="9.997" height="9.997"/>
		<rect x="239.935" y="159.957" width="9.998" height="9.997"/>
		<rect x="249.933" y="159.957" width="9.997" height="9.997"/>
		<rect x="269.927" y="159.957" width="9.998" height="9.997"/>
		<rect x="279.925" y="159.957" width="9.996" height="9.997"/>
		<rect x="299.919" y="159.957" width="9.998" height="9.997"/>
		<rect x="309.917" y="159.957" width="9.996" height="9.997"/>
		<rect x="319.914" y="159.957" width="9.998" height="9.997"/>
		<rect x="329.912" y="159.957" width="9.996" height="9.997"/>
		<rect x="89.976" y="169.954" width="9.998" height="9.998"/>
		<rect x="109.97" y="169.954" width="9.998" height="9.998"/>
		<rect x="129.965" y="169.954" width="9.998" height="9.998"/>
		<rect x="179.952" y="169.954" width="9.997" height="9.998"/>
		<rect x="189.949" y="169.954" width="9.998" height="9.998"/>
		<rect x="219.941" y="169.954" width="9.997" height="9.998"/>
		<rect x="239.935" y="169.954" width="9.998" height="9.998"/>
		<rect x="249.933" y="169.954" width="9.997" height="9.998"/>
		<rect x="269.927" y="169.954" width="9.998" height="9.998"/>
		<rect x="279.925" y="169.954" width="9.996" height="9.998"/>
		<rect x="289.921" y="169.954" width="9.998" height="9.998"/>
		<rect x="299.919" y="169.954" width="9.998" height="9.998"/>
		<rect x="309.917" y="169.954" width="9.996" height="9.998"/>
		<rect x="319.914" y="169.954" width="9.998" height="9.998"/>
		<rect x="329.912" y="169.954" width="9.996" height="9.998"/>
		<rect x="339.908" y="169.954" width="9.998" height="9.998"/>
		<rect x="359.904" y="169.954" width="9.996" height="9.998"/>
		<rect x="49.986" y="179.952" width="9.998" height="9.997"/>
		<rect x="69.981" y="179.952" width="9.998" height="9.997"/>
		<rect x="79.979" y="179.952" width="9.997" height="9.997"/>
		<rect x="99.973" y="179.952" width="9.997" height="9.997"/>
		<rect x="119.968" y="179.952" width="9.997" height="9.997"/>
		<rect x="169.954" y="179.952" width="9.998" height="9.997"/>
		<rect x="209.943" y="179.952" width="9.998" height="9.997"/>
		<rect x="219.941" y="179.952" width="9.997" height="9.997"/>
		<rect x="229.938" y="179.952" width="9.997" height="9.997"/>
		<rect x="239.935" y="179.952" width="9.998" height="9.997"/>
		<rect x="269.927" y="179.952" width="9.998" height="9.997"/>
		<rect x="279.925" y="179.952" width="9.996" height="9.997"/>
		<rect x="299.919" y="179.952" width="9.998" height="9.997"/>
		<rect x="309.917" y="179.952" width="9.996" height="9.997"/>
		<rect x="329.912" y="179.952" width="9.996" height="9.997"/>
		<rect x="359.904" y="179.952" width="9.996" height="9.997"/>
		<rect x="39.989" y="189.949" width="9.997" height="9.998"/>
		<rect x="79.979" y="189.949" width="9.997" height="9.998"/>
		<rect x="129.965" y="189.949" width="9.998" height="9.998"/>
		<rect x="139.962" y="189.949" width="9.997" height="9.998"/>
		<rect x="149.959" y="189.949" width="9.998" height="9.998"/>
		<rect x="169.954" y="189.949" width="9.998" height="9.998"/>
		<rect x="189.949" y="189.949" width="9.998" height="9.998"/>
		<rect x="199.946" y="189.949" width="9.997" height="9.998"/>
		<rect x="209.943" y="189.949" width="9.998" height="9.998"/>
		<rect x="219.941" y="189.949" width="9.997" height="9.998"/>
		<rect x="229.938" y="189.949" width="9.997" height="9.998"/>
		<rect x="259.93" y="189.949" width="9.997" height="9.998"/>
		<rect x="269.927" y="189.949" width="9.998" height="9.998"/>
		<rect x="289.921" y="189.949" width="9.998" height="9.998"/>
		<rect x="309.917" y="189.949" width="9.996" height="9.998"/>
		<rect x="319.914" y="189.949" width="9.998" height="9.998"/>
		<rect x="329.912" y="189.949" width="9.996" height="9.998"/>
		<rect x="339.908" y="189.949" width="9.998" height="9.998"/>
		<rect x="359.904" y="189.949" width="9.996" height="9.998"/>
		<rect x="39.989" y="199.946" width="9.997" height="9.997"/>
		<rect x="59.984" y="199.946" width="9.997" height="9.997"/>
		<rect x="69.981" y="199.946" width="9.998" height="9.997"/>
		<rect x="89.976" y="199.946" width="9.998" height="9.997"/>
		<rect x="99.973" y="199.946" width="9.997" height="9.997"/>
		<rect x="109.97" y="199.946" width="9.998" height="9.997"/>
		<rect x="119.968" y="199.946" width="9.997" height="9.997"/>
		<rect x="129.965" y="199.946" width="9.998" height="9.997"/>
		<rect x="139.962" y="199.946" width="9.997" height="9.997"/>
		<rect x="149.959" y="199.946" width="9.998" height="9.997"/>
		<rect x="159.957" y="199.946" width="9.997" height="9.997"/>
		<rect x="169.954" y="199.946" width="9.998" height="9.997"/>
		<rect x="179.952" y="199.946" width="9.997" height="9.997"/>
		<rect x="199.946" y="199.946" width="9.997" height="9.997"/>
		<rect x="209.943" y="199.946" width="9.998" height="9.997"/>
		<rect x="219.941" y="199.946" width="9.997" height="9.997"/>
		<rect x="239.935" y="199.946" width="9.998" height="9.997"/>
		<rect x="269.927" y="199.946" width="9.998" height="9.997"/>
		<rect x="279.925" y="199.946" width="9.996" height="9.997"/>
		<rect x="299.919" y="199.946" width="9.998" height="9.997"/>
		<rect x="309.917" y="199.946" width="9.996" height="9.997"/>
		<rect x="329.912" y="199.946" width="9.996" height="9.997"/>
		<rect x="339.908" y="199.946" width="9.998" height="9.997"/>
		<rect x="349.906" y="199.946" width="9.998" height="9.997"/>
		<rect x="59.984" y="209.943" width="9.997" height="9.998"/>
		<rect x="129.965" y="209.943" width="9.998" height="9.998"/>
		<rect x="139.962" y="209.943" width="9.997" height="9.998"/>
		<rect x="189.949" y="209.943" width="9.998" height="9.998"/>
		<rect x="239.935" y="209.943" width="9.998" height="9.998"/>
		<rect x="269.927" y="209.943" width="9.998" height="9.998"/>
		<rect x="299.919" y="209.943" width="9.998" height="9.998"/>
		<rect x="309.917" y="209.943" width="9.996" height="9.998"/>
		<rect x="339.908" y="209.943" width="9.998" height="9.998"/>
		<rect x="49.986" y="219.941" width="9.998" height="9.997"/>
		<rect x="89.976" y="219.941" width="9.998" height="9.997"/>
		<rect x="99.973" y="219.941" width="9.997" height="9.997"/>
		<rect x="119.968" y="219.941" width="9.997" height="9.997"/>
		<rect x="139.962" y="219.941" width="9.997" height="9.997"/>
		<rect x="169.954" y="219.941" width="9.998" height="9.997"/>
		<rect x="189.949" y="219.941" width="9.998" height="9.997"/>
		<rect x="209.943" y="219.941" width="9.998" height="9.997"/>
		<rect x="219.941" y="219.941" width="9.997" height="9.997"/>
		<rect x="229.938" y="219.941" width="9.997" height="9.997"/>
		<rect x="249.933" y="219.941" width="9.997" height="9.997"/>
		<rect x="269.927" y="219.941" width="9.998" height="9.997"/>
		<rect x="279.925" y="219.941" width="9.996" height="9.997"/>
		<rect x="289.921" y="219.941" width="9.998" height="9.997"/>
		<rect x="299.919" y="219.941" width="9.998" height="9.997"/>
		<rect x="319.914" y="219.941" width="9.998" height="9.997"/>
		<rect x="329.912" y="219.941" width="9.996" height="9.997"/>
		<rect x="339.908" y="219.941" width="9.998" height="9.997"/>
		<rect x="349.906" y="219.941" width="9.998" height="9.997"/>
		<rect x="359.904" y="219.941" width="9.996" height="9.997"/>
		<rect x="69.981" y="229.938" width="9.998" height="9.997"/>
		<rect x="89.976" y="229.938" width="9.998" height="9.997"/>
		<rect x="119.968" y="229.938" width="9.997" height="9.997"/>
		<rect x="149.959" y="229.938" width="9.998" height="9.997"/>
		<rect x="159.957" y="229.938" width="9.997" height="9.997"/>
		<rect x="169.954" y="229.938" width="9.998" height="9.997"/>
		<rect x="179.952" y="229.938" width="9.997" height="9.997"/>
		<rect x="189.949" y="229.938" width="9.998" height="9.997"/>
		<rect x="199.946" y="229.938" width="9.997" height="9.997"/>
		<rect x="209.943" y="229.938" width="9.998" height="9.997"/>
		<rect x="219.941" y="229.938" width="9.997" height="9.997"/>
		<rect x="239.935" y="229.938" width="9.998" height="9.997"/>
		<rect x="259.93" y="229.938" width="9.997" height="9.997"/>
		<rect x="269.927" y="229.938" width="9.998" height="9.997"/>
		<rect x="289.921" y="229.938" width="9.998" height="9.997"/>
		<rect x="309.917" y="229.938" width="9.996" height="9.997"/>
		<rect x="319.914" y="229.938" width="9.998" height="9.997"/>
		<rect x="329.912" y="229.938" width="9.996" height="9.997"/>
		<rect x="349.906" y="229.938" width="9.998" height="9.997"/>
		<rect x="39.989" y="239.935" width="9.997" height="9.998"/>
		<rect x="69.981" y="239.935" width="9.998" height="9.998"/>
		<rect x="79.979" y="239.935" width="9.997" height="9.998"/>
		<rect x="99.973" y="239.935" width="9.997" height="9.998"/>
		<rect x="109.97" y="239.935" width="9.998" height="9.998"/>
		<rect x="129.965" y="239.935" width="9.998" height="9.998"/>
		<rect x="149.959" y="239.935" width="9.998" height="9.998"/>
		<rect x="179.952" y="239.935" width="9.997" height="9.998"/>
		<rect x="239.935" y="239.935" width="9.998" height="9.998"/>
		<rect x="279.925" y="239.935" width="9.996" height="9.998"/>
		<rect x="289.921" y="239.935" width="9.998" height="9.998"/>
		<rect x="299.919" y="239.935" width="9.998" height="9.998"/>
		<rect x="359.904" y="239.935" width="9.996" height="9.998"/>
		<rect x="59.984" y="249.933" width="9.997" height="9.997"/>
		<rect x="69.981" y="249.933" width="9.998" height="9.997"/>
		<rect x="89.976" y="249.933" width="9.998" height="9.997"/>
		<rect x="109.97" y="249.933" width="9.998" height="9.997"/>
		<rect x="139.962" y="249.933" width="9.997" height="9.997"/>
		<rect x="169.954" y="249.933" width="9.998" height="9.997"/>
		<rect x="199.946" y="249.933" width="9.997" height="9.997"/>
		<rect x="209.943" y="249.933" width="9.998" height="9.997"/>
		<rect x="239.935" y="249.933" width="9.998" height="9.997"/>
		<rect x="259.93" y="249.933" width="9.997" height="9.997"/>
		<rect x="279.925" y="249.933" width="9.996" height="9.997"/>
		<rect x="289.921" y="249.933" width="9.998" height="9.997"/>
		<rect x="309.917" y="249.933" width="9.996" height="9.997"/>
		<rect x="329.912" y="249.933" width="9.996" height="9.997"/>
		<rect x="339.908" y="249.933" width="9.998" height="9.997"/>
		<rect x="359.904" y="249.933" width="9.996" height="9.997"/>
		<rect x="39.989" y="259.93" width="9.997" height="9.997"/>
		<rect x="49.986" y="259.93" width="9.998" height="9.997"/>
		<rect x="59.984" y="259.93" width="9.997" height="9.997"/>
		<rect x="69.981" y="259.93" width="9.998" height="9.997"/>
		<rect x="99.973" y="259.93" width="9.997" height="9.997"/>
		<rect x="109.97" y="259.93" width="9.998" height="9.997"/>
		<rect x="119.968" y="259.93" width="9.997" height="9.997"/>
		<rect x="139.962" y="259.93" width="9.997" height="9.997"/>
		<rect x="149.959" y="259.93" width="9.998" height="9.997"/>
		<rect x="159.957" y="259.93" width="9.997" height="9.997"/>
		<rect x="179.952" y="259.93" width="9.997" height="9.997"/>
		<rect x="189.949" y="259.93" width="9.998" height="9.997"/>
		<rect x="199.946" y="259.93" width="9.997" height="9.997"/>
		<rect x="219.941" y="259.93" width="9.997" height="9.997"/>
		<rect x="229.938" y="259.93" width="9.997" height="9.997"/>
		<rect x="249.933" y="259.93" width="9.997" height="9.997"/>
		<rect x="279.925" y="259.93" width="9.996" height="9.997"/>
		<rect x="289.921" y="259.93" width="9.998" height="9.997"/>
		<rect x="299.919" y="259.93" width="9.998" height="9.997"/>
		<rect x="319.914" y="259.93" width="9.998" height="9.997"/>
		<rect x="339.908" y="259.93" width="9.998" height="9.997"/>
		<rect x="359.904" y="259.93" width="9.996" height="9.997"/>
		<rect x="89.976" y="269.927" width="9.998" height="9.998"/>
		<rect x="119.968" y="269.927" width="9.997" height="9.998"/>
		<rect x="139.962" y="269.927" width="9.997" height="9.998"/>
		<rect x="169.954" y="269.927" width="9.998" height="9.998"/>
		<rect x="179.952" y="269.927" width="9.997" height="9.998"/>
		<rect x="189.949" y="269.927" width="9.998" height="9.998"/>
		<rect x="199.946" y="269.927" width="9.997" height="9.998"/>
		<rect x="269.927" y="269.927" width="9.998" height="9.998"/>
		<rect x="279.925" y="269.927" width="9.996" height="9.998"/>
		<rect x="309.917" y="269.927" width="9.996" height="9.998"/>
		<rect x="329.912" y="269.927" width="9.996" height="9.998"/>
		<rect x="39.989" y="279.925" width="9.997" height="9.996"/>
		<rect x="49.986" y="279.925" width="9.998" height="9.996"/>
		<rect x="59.984" y="279.925" width="9.997" height="9.996"/>
		<rect x="69.981" y="279.925" width="9.998" height="9.996"/>
		<rect x="89.976" y="279.925" width="9.998" height="9.996"/>
		<rect x="99.973" y="279.925" width="9.997" height="9.996"/>
		<rect x="109.97" y="279.925" width="9.998" height="9.996"/>
		<rect x="119.968" y="279.925" width="9.997" height="9.996"/>
		<rect x="129.965" y="279.925" width="9.998" height="9.996"/>
		<rect x="139.962" y="279.925" width="9.997" height="9.996"/>
		<rect x="149.959" y="279.925" width="9.998" height="9.996"/>
		<rect x="189.949" y="279.925" width="9.998" height="9.996"/>
		<rect x="209.943" y="279.925" width="9.998" height="9.996"/>
		<rect x="229.938" y="279.925" width="9.997" height="9.996"/>
		<rect x="279.925" y="279.925" width="9.996" height="9.996"/>
		<rect x="289.921" y="279.925" width="9.998" height="9.996"/>
		<rect x="299.919" y="279.925" width="9.998" height="9.996"/>
		<rect x="309.917" y="279.925" width="9.996" height="9.996"/>
		<rect x="319.914" y="279.925" width="9.998" height="9.996"/>
		<rect x="329.912" y="279.925" width="9.996" height="9.996"/>
		<rect x="359.904" y="279.925" width="9.996" height="9.996"/>
		<rect x="119.968" y="289.921" width="9.997" height="9.998"/>
		<rect x="149.959" y="289.921" width="9.998" height="9.998"/>
		<rect x="169.954" y="289.921" width="9.998" height="9.998"/>
		<rect x="199.946" y="289.921" width="9.997" height="9.998"/>
		<rect x="219.941" y="289.921" width="9.997" height="9.998"/>
		<rect x="269.927" y="289.921" width="9.998" height="9.998"/>
		<rect x="279.925" y="289.921" width="9.996" height="9.998"/>
		<rect x="319.914" y="289.921" width="9.998" height="9.998"/>
		<rect x="329.912" y="289.921" width="9.996" height="9.998"/>
		<rect x="339.908" y="289.921" width="9.998" height="9.998"/>
		<rect x="359.904" y="289.921" width="9.996" height="9.998"/>
		<rect x="39.989" y="299.919" width="9.997" height="9.997"/>
		<rect x="49.986" y="299.919" width="9.998" height="9.997"/>
		<rect x="59.984" y="299.919" width="9.997" height="9.997"/>
		<rect x="69.981" y="299.919" width="9.998" height="9.997"/>
		<rect x="79.979" y="299.919" width="9.997" height="9.997"/>
		<rect x="89.976" y="299.919" width="9.998" height="9.997"/>
		<rect x="99.973" y="299.919" width="9.997" height="9.997"/>
		<rect x="119.968" y="299.919" width="9.997" height="9.997"/>
		<rect x="149.959" y="299.919" width="9.998" height="9.997"/>
		<rect x="159.957" y="299.919" width="9.997" height="9.997"/>
		<rect x="169.954" y="299.919" width="9.998" height="9.997"/>
		<rect x="189.949" y="299.919" width="9.998" height="9.997"/>
		<rect x="209.943" y="299.919" width="9.998" height="9.997"/>
		<rect x="229.938" y="299.919" width="9.997" height="9.997"/>
		<rect x="239.935" y="299.919" width="9.998" height="9.997"/>
		<rect x="249.933" y="299.919" width="9.997" height="9.997"/>
		<rect x="259.93" y="299.919" width="9.997" height="9.997"/>
		<rect x="279.925" y="299.919" width="9.996" height="9.997"/>
		<rect x="299.919" y="299.919" width="9.998" height="9.997"/>
		<rect x="319.914" y="299.919" width="9.998" height="9.997"/>
		<rect x="359.904" y="299.919" width="9.996" height="9.997"/>
		<rect x="39.989" y="309.917" width="9.997" height="9.997"/>
		<rect x="99.973" y="309.917" width="9.997" height="9.997"/>
		<rect x="119.968" y="309.917" width="9.997" height="9.997"/>
		<rect x="139.962" y="309.917" width="9.997" height="9.997"/>
		<rect x="149.959" y="309.917" width="9.998" height="9.997"/>
		<rect x="159.957" y="309.917" width="9.997" height="9.997"/>
		<rect x="169.954" y="309.917" width="9.998" height="9.997"/>
		<rect x="179.952" y="309.917" width="9.997" height="9.997"/>
		<rect x="189.949" y="309.917" width="9.998" height="9.997"/>
		<rect x="199.946" y="309.917" width="9.997" height="9.997"/>
		<rect x="229.938" y="309.917" width="9.997" height="9.997"/>
		<rect x="239.935" y="309.917" width="9.998" height="9.997"/>
		<rect x="259.93" y="309.917" width="9.997" height="9.997"/>
		<rect x="269.927" y="309.917" width="9.998" height="9.997"/>
		<rect x="279.925" y="309.917" width="9.996" height="9.997"/>
		<rect x="319.914" y="309.917" width="9.998" height="9.997"/>
		<rect x="329.912" y="309.917" width="9.996" height="9.997"/>
		<rect x="39.989" y="319.914" width="9.997" height="9.998"/>
		<rect x="59.984" y="319.914" width="9.997" height="9.998"/>
		<rect x="69.981" y="319.914" width="9.998" height="9.998"/>
		<rect x="79.979" y="319.914" width="9.997" height="9.998"/>
		<rect x="99.973" y="319.914" width="9.997" height="9.998"/>
		<rect x="129.965" y="319.914" width="9.998" height="9.998"/>
		<rect x="169.954" y="319.914" width="9.998" height="9.998"/>
		<rect x="199.946" y="319.914" width="9.997" height="9.998"/>
		<rect x="209.943" y="319.914" width="9.998" height="9.998"/>
		<rect x="219.941" y="319.914" width="9.997" height="9.998"/>
		<rect x="229.938" y="319.914" width="9.997" height="9.998"/>
		<rect x="239.935" y="319.914" width="9.998" height="9.998"/>
		<rect x="249.933" y="319.914" width="9.997" height="9.998"/>
		<rect x="259.93" y="319.914" width="9.997" height="9.998"/>
		<rect x="269.927" y="319.914" width="9.998" height="9.998"/>
		<rect x="279.925" y="319.914" width="9.996" height="9.998"/>
		<rect x="289.921" y="319.914" width="9.998" height="9.998"/>
		<rect x="299.919" y="319.914" width="9.998" height="9.998"/>
		<rect x="309.917" y="319.914" width="9.996" height="9.998"/>
		<rect x="319.914" y="319.914" width="9.998" height="9.998"/>
		<rect x="329.912" y="319.914" width="9.996" height="9.998"/>
		<rect x="349.906" y="319.914" width="9.998" height="9.998"/>
		<rect x="39.989" y="329.912" width="9.997" height="9.997"/>
		<rect x="59.984" y="329.912" width="9.997" height="9.997"/>
		<rect x="69.981" y="329.912" width="9.998" height="9.997"/>
		<rect x="79.979" y="329.912" width="9.997" height="9.997"/>
		<rect x="99.973" y="329.912" width="9.997" height="9.997"/>
		<rect x="129.965" y="329.912" width="9.998" height="9.997"/>
		<rect x="139.962" y="329.912" width="9.997" height="9.997"/>
		<rect x="149.959" y="329.912" width="9.998" height="9.997"/>
		<rect x="159.957" y="329.912" width="9.997" height="9.997"/>
		<rect x="189.949" y="329.912" width="9.998" height="9.997"/>
		<rect x="209.943" y="329.912" width="9.998" height="9.997"/>
		<rect x="219.941" y="329.912" width="9.997" height="9.997"/>
		<rect x="229.938" y="329.912" width="9.997" height="9.997"/>
		<rect x="249.933" y="329.912" width="9.997" height="9.997"/>
		<rect x="259.93" y="329.912" width="9.997" height="9.997"/>
		<rect x="279.925" y="329.912" width="9.996" height="9.997"/>
		<rect x="309.917" y="329.912" width="9.996" height="9.997"/>
		<rect x="319.914" y="329.912" width="9.998" height="9.997"/>
		<rect x="349.906" y="329.912" width="9.998" height="9.997"/>
		<rect x="39.989" y="339.909" width="9.997" height="9.997"/>
		<rect x="59.984" y="339.909" width="9.997" height="9.997"/>
		<rect x="69.981" y="339.909" width="9.998" height="9.997"/>
		<rect x="79.979" y="339.909" width="9.997" height="9.997"/>
		<rect x="99.973" y="339.909" width="9.997" height="9.997"/>
		<rect x="119.968" y="339.909" width="9.997" height="9.997"/>
		<rect x="159.957" y="339.909" width="9.997" height="9.997"/>
		<rect x="179.952" y="339.909" width="9.997" height="9.997"/>
		<rect x="199.946" y="339.909" width="9.997" height="9.997"/>
		<rect x="249.933" y="339.909" width="9.997" height="9.997"/>
		<rect x="259.93" y="339.909" width="9.997" height="9.997"/>
		<rect x="269.927" y="339.909" width="9.998" height="9.997"/>
		<rect x="279.925" y="339.909" width="9.996" height="9.997"/>
		<rect x="319.914" y="339.909" width="9.998" height="9.997"/>
		<rect x="339.908" y="339.909" width="9.998" height="9.997"/>
		<rect x="349.906" y="339.909" width="9.998" height="9.997"/>
		<rect x="359.904" y="339.909" width="9.996" height="9.997"/>
		<rect x="39.989" y="349.906" width="9.997" height="9.998"/>
		<rect x="99.973" y="349.906" width="9.997" height="9.998"/>
		<rect x="129.965" y="349.906" width="9.998" height="9.998"/>
		<rect x="139.962" y="349.906" width="9.997" height="9.998"/>
		<rect x="159.957" y="349.906" width="9.997" height="9.998"/>
		<rect x="169.954" y="349.906" width="9.998" height="9.998"/>
		<rect x="209.943" y="349.906" width="9.998" height="9.998"/>
		<rect x="239.935" y="349.906" width="9.998" height="9.998"/>
		<rect x="249.933" y="349.906" width="9.997" height="9.998"/>
		<rect x="259.93" y="349.906" width="9.997" height="9.998"/>
		<rect x="269.927" y="349.906" width="9.998" height="9.998"/>
		<rect x="279.925" y="349.906" width="9.996" height="9.998"/>
		<rect x="289.921" y="349.906" width="9.998" height="9.998"/>
		<rect x="39.989" y="359.904" width="9.997" height="9.996"/>
		<rect x="49.986" y="359.904" width="9.998" height="9.996"/>
		<rect x="59.984" y="359.904" width="9.997" height="9.996"/>
		<rect x="69.981" y="359.904" width="9.998" height="9.996"/>
		<rect x="79.979" y="359.904" width="9.997" height="9.996"/>
		<rect x="89.976" y="359.904" width="9.998" height="9.996"/>
		<rect x="99.973" y="359.904" width="9.997" height="9.996"/>
		<rect x="139.962" y="359.904" width="9.997" height="9.996"/>
		<rect x="169.954" y="359.904" width="9.998" height="9.996"/>
		<rect x="179.952" y="359.904" width="9.997" height="9.996"/>
		<rect x="189.949" y="359.904" width="9.998" height="9.996"/>
		<rect x="239.935" y="359.904" width="9.998" height="9.996"/>
		<rect x="249.933" y="359.904" width="9.997" height="9.996"/>
		<rect x="259.93" y="359.904" width="9.997" height="9.996"/>
		<rect x="279.925" y="359.904" width="9.996" height="9.996"/>
		<rect x="289.921" y="359.904" width="9.998" height="9.996"/>
		<rect x="299.919" y="359.904" width="9.998" height="9.996"/>
		<rect x="319.914" y="359.904" width="9.998" height="9.996"/>
		<rect x="339.908" y="359.904" width="9.998" height="9.996"/>
		<rect x="359.904" y="359.904" width="9.996" height="9.996"/>
	</g>
</g>
</svg>
